<?xml version="1.0" encoding="UTF-8" standalone="no"?>
<!-- Generator: Adobe Illustrator 16.0.0, SVG Export Plug-In . SVG Version: 6.00 Build 0)  -->

<svg
   xmlns:dc="http://purl.org/dc/elements/1.1/"
   xmlns:cc="http://creativecommons.org/ns#"
   xmlns:rdf="http://www.w3.org/1999/02/22-rdf-syntax-ns#"
   xmlns:svg="http://www.w3.org/2000/svg"
   xmlns="http://www.w3.org/2000/svg"
   xmlns:sodipodi="http://sodipodi.sourceforge.net/DTD/sodipodi-0.dtd"
   xmlns:inkscape="http://www.inkscape.org/namespaces/inkscape"
   version="1.1"
   id="Calque_2"
   x="0px"
   y="0px"
   width="842"
   height="420"
   viewBox="0 0 841.99999 419.99999"
   enable-background="new 0 0 841.89 420.765"
   xml:space="preserve"
   sodipodi:docname="logo_vectoriel.svg"
   inkscape:version="0.92.2 (5c3e80d, 2017-08-06)"
   inkscape:export-filename="C:\Users\tibid\Dropbox\Marie et Thibault\Les Créations de Marie\Logo\logo_vectoriel.png"
   inkscape:export-xdpi="218.90736"
   inkscape:export-ydpi="218.90736"><metadata
     id="metadata67"><rdf:RDF><cc:Work
         rdf:about=""><dc:format>image/svg+xml</dc:format><dc:type
           rdf:resource="http://purl.org/dc/dcmitype/StillImage" /><dc:title></dc:title></cc:Work></rdf:RDF></metadata><defs
     id="defs65" /><sodipodi:namedview
     pagecolor="#ffffff"
     bordercolor="#666666"
     borderopacity="1"
     objecttolerance="10"
     gridtolerance="10"
     guidetolerance="10"
     inkscape:pageopacity="0"
     inkscape:pageshadow="2"
     inkscape:window-width="1920"
     inkscape:window-height="1001"
     id="namedview63"
     showgrid="false"
     inkscape:zoom="1.0547696"
     inkscape:cx="402.35892"
     inkscape:cy="226.23894"
     inkscape:window-x="-9"
     inkscape:window-y="-9"
     inkscape:window-maximized="1"
     inkscape:current-layer="Calque_2" /><rect
     style="fill:#ffffff;fill-opacity:1;stroke:none;stroke-width:0.99502051;stroke-opacity:1"
     id="rect812"
     width="842"
     height="420"
     x="0"
     y="-3.2862602e-014" /><path
     style="fill:#e8531f;stroke:none"
     d="m 520.52734,4.9381104 c -0.5673,0.010436 -1.16856,0.091437 -1.77929,0.1953125 0.48137,-0.033953 2.49218,-0.1816406 2.49218,-0.1816406 -0.23331,-0.013219 -0.47062,-0.018128 -0.71289,-0.013672 z m -1.77929,0.1953125 c -3.49639,0.2466173 -16.75192,1.191228 -25.95313,2.0957031 -10.467,1.021 -24.32053,-1.0825781 -36.39453,21.982421 -12.068,23.05 -28.12533,101.322813 -43.23633,109.382823 0,0 20.29072,-1.49335 25.38672,-3.15235 8.964,-2.901 18.19314,-12.97195 23.99414,-23.37695 5.804,-10.405 25.31383,-75.521976 32.17383,-87.167976 6.13378,-10.428941 16.55497,-18.4924044 24.0293,-19.7636711 z M 523.25,6.0142823 c -0.22896,0.014818 -0.33203,0.052734 -0.33203,0.052734 0,0 -11.73324,0.5238594 -22.61524,14.6308597 0,0 19.54827,8.729031 53.44727,56.207031 12.558,17.605 23.34888,32.280273 41.42188,55.322273 13.29999,16.958 44.10484,35.23575 96.08984,-21.78125 0,0 -45.60099,27.88208 -67.20899,7.45508 -21.592,-20.442009 -60.4119,-74.532244 -70.6289,-86.490244 C 532.5682,7.0201417 524.85274,5.9105538 523.25,6.0142823 Z M 360.49609,22.402954 c 0,0 -9.55256,2.058562 -24.10156,6.101562 -14.551,4.037 -14.59664,5.014594 -18.30664,12.933594 -3.711,7.918 -15.12616,36.863969 -20.66016,53.792969 -5.531,16.927001 -25.74023,34.634771 -25.74023,34.634771 0,0 27.24788,-9.82752 44.29688,-23.47852 17.03999,-13.671001 33.07831,-54.716954 34.07031,-66.376954 0.987,-11.646 10.4414,-17.607422 10.4414,-17.607422 z m 2.89844,0.488281 c 0,0 -8.33583,3.748547 -10.42383,11.435547 -2.065,7.684 -1.48047,14.556641 -1.48047,14.556641 0,0 28.09585,68.261817 37.21485,79.507817 9.105,11.273 17.58815,10.78164 22.91015,8.80664 5.318,-1.963 10.78125,-15.39844 10.78125,-15.39844 0,0 -2.10309,0.29077 -5.37109,-5.11523 -3.26,-5.39 -31.60962,-69.428522 -37.51562,-79.853522 -5.911,-10.429 -16.11524,-13.939453 -16.11524,-13.939453 z M 147.35742,91.168579 c 14.114,20.649001 41.47611,48.254131 76.16211,50.578131 34.658,2.305 48.7207,-15.75391 48.7207,-15.75391 -11.636,4.207 -31.69751,2.40742 -56.97851,-4.89258 -25.28,-7.32 -67.9043,-29.931641 -67.9043,-29.931641 z M 20.042969,124.28382 17.707031,131.28577 H 166.72266 l -6.99805,-7.00195 z m 676.896481,0 -6.99804,7.00195 h 133.92187 l -2.33594,-7.00195 z m -358.46484,26.48047 -4.67969,9.77929 h 3.89649 l 7.13867,-9.77929 z m 200.82422,13.83203 c -2.6845,0 -5.16957,0.45292 -7.45313,1.35937 -2.26613,0.90646 -4.16522,2.21552 -5.69922,3.92383 -1.60372,1.79547 -2.82538,3.95677 -3.6621,6.48438 -0.83673,2.51017 -1.25391,5.35085 -1.25391,8.52343 0,3.22488 0.41718,6.09335 1.25391,8.60352 0.85415,2.51018 2.0659,4.62777 3.63476,6.35352 1.56886,1.72574 3.46991,3.04081 5.70117,3.94726 2.2487,0.90645 4.74173,1.35938 7.47852,1.35938 2.80651,0 5.29759,-0.44302 7.47656,-1.33204 2.1964,-0.88902 4.09745,-2.21399 5.70117,-3.9746 1.55143,-1.69089 2.75327,-3.80052 3.60742,-6.32813 0.8716,-2.54504 1.3086,-5.42146 1.3086,-8.62891 0,-3.20744 -0.42709,-6.07396 -1.28125,-8.60156 -0.83673,-2.52761 -2.04848,-4.66308 -3.63477,-6.40625 -1.55142,-1.69088 -3.44256,-2.99003 -5.67383,-3.89648 -2.21384,-0.92389 -4.71482,-1.38672 -7.5039,-1.38672 z M 130.75,164.70179 c -4.23592,0 -7.73211,1.0449 -10.48633,3.13672 -2.75422,2.07438 -4.13086,4.74221 -4.13086,8.00195 0,2.84138 0.82836,5.15165 2.48438,6.92969 1.67344,1.76061 4.236,3.00614 7.6875,3.73828 1.70831,0.34863 3.32133,0.63667 4.83789,0.86328 1.534,0.22661 2.95434,0.51465 4.26172,0.86328 1.72574,0.45323 3.00702,1.08891 3.84375,1.9082 0.85415,0.8193 1.28125,2.09262 1.28125,3.81836 0,2.00466 -0.89789,3.60776 -2.69336,4.81055 -1.77804,1.20279 -4.27107,1.80469 -7.47852,1.80469 -2.26612,0 -4.68963,-0.44497 -7.26953,-1.33399 -2.57991,-0.88902 -4.85443,-2.15243 -6.82422,-3.79101 h -0.36523 v 6.48437 c 2.31842,1.02848 4.59295,1.80322 6.82422,2.32617 2.2487,0.52296 4.77551,0.78516 7.58203,0.78516 2.61476,0 4.84559,-0.31386 6.69336,-0.94141 1.8652,-0.62754 3.49608,-1.4996 4.89062,-2.61523 1.27252,-1.02848 2.25781,-2.28393 2.95508,-3.76563 0.7147,-1.4817 1.07227,-2.97953 1.07227,-4.49609 0,-2.78909 -0.733,-4.96029 -2.19727,-6.51172 -1.46427,-1.55142 -3.64344,-2.70956 -6.53711,-3.47656 -1.42941,-0.36607 -3.17157,-0.72363 -5.22852,-1.07227 -2.05694,-0.34864 -3.64413,-0.64463 -4.75976,-0.88867 -2.10925,-0.48809 -3.5832,-1.19526 -4.41992,-2.11914 -0.83672,-0.92389 -1.25391,-2.19525 -1.25391,-3.8164 0,-1.81291 0.83632,-3.29482 2.50977,-4.44532 1.69088,-1.1505 3.9217,-1.72656 6.69336,-1.72656 2.5276,0 4.9948,0.41913 7.40039,1.25586 2.42301,0.81929 4.37572,1.85624 5.85742,3.11133 h 0.36523 v -6.11914 c -1.7606,-0.767 -3.78284,-1.41064 -6.0664,-1.9336 -2.28356,-0.52295 -4.79251,-0.78515 -7.5293,-0.78515 z m 97.35156,0 c -2.8588,0 -5.46506,0.44496 -7.81836,1.33398 -2.33585,0.88902 -4.33226,2.17826 -5.98828,3.86914 -1.70831,1.74318 -3.01542,3.87865 -3.92187,6.40625 -0.90646,2.52761 -1.35938,5.39412 -1.35938,8.60156 0,3.38177 0.47079,6.35551 1.41211,8.91797 0.94131,2.54504 2.24842,4.64476 3.92188,6.30078 1.70831,1.69088 3.71267,2.93643 6.01367,3.73829 2.31842,0.78443 4.8909,1.17773 7.71484,1.17773 1.49913,0 2.86586,-0.12119 4.10352,-0.36523 1.25508,-0.22662 2.41517,-0.50669 3.47851,-0.83789 1.25509,-0.40093 2.26621,-0.78433 3.03321,-1.1504 0.78443,-0.36606 1.65648,-0.75741 2.61523,-1.17578 v -6.0664 h -0.36719 c -1.90006,1.70831 -3.93821,2.98959 -6.11718,3.84375 -2.17898,0.85416 -4.51508,1.28125 -7.00782,1.28125 -1.8129,0 -3.53914,-0.30591 -5.17773,-0.91602 -1.62115,-0.62755 -3.0415,-1.58701 -4.26172,-2.87695 -1.16793,-1.23766 -2.12739,-2.84076 -2.87695,-4.81055 -0.73214,-1.96979 -1.09766,-4.32376 -1.09766,-7.06055 0,-2.61476 0.33173,-4.91512 0.99414,-6.90234 0.67984,-2.00465 1.62143,-3.65942 2.82422,-4.9668 1.23765,-1.34224 2.64012,-2.32753 4.20898,-2.95507 1.5863,-0.64498 3.3642,-0.96875 5.33399,-0.96875 2.40559,0 4.66224,0.41117 6.77148,1.23046 2.10924,0.8193 4.23676,2.12641 6.38086,3.92188 h 0.39258 v -6.14453 c -2.54504,-1.27252 -4.86326,-2.16245 -6.95508,-2.66797 -2.07438,-0.50553 -4.15818,-0.75781 -6.25,-0.75781 z m 428.86524,0 c -4.23592,0 -7.73016,1.0449 -10.48438,3.13672 -2.75422,2.07438 -4.13281,4.74221 -4.13281,8.00195 0,2.84138 0.82836,5.15165 2.48437,6.92969 1.67346,1.76061 4.23602,3.00614 7.6875,3.73828 1.70832,0.34863 3.32133,0.63667 4.8379,0.86328 1.53399,0.22661 2.95433,0.51465 4.26171,0.86328 1.72575,0.45323 3.00703,1.08891 3.84375,1.9082 0.85416,0.8193 1.28125,2.09262 1.28125,3.81836 0,2.00466 -0.89788,3.60776 -2.69336,4.81055 -1.77804,1.20279 -4.27106,1.80469 -7.47851,1.80469 -2.26613,0 -4.68767,-0.44497 -7.26758,-1.33399 -2.5799,-0.88902 -4.85638,-2.15243 -6.82617,-3.79101 h -0.36524 v 6.48437 c 2.31843,1.02848 4.59296,1.80322 6.82422,2.32617 2.2487,0.52296 4.77747,0.78516 7.58399,0.78516 2.61476,0 4.84558,-0.31386 6.69336,-0.94141 1.8652,-0.62754 3.49413,-1.4996 4.88867,-2.61523 1.27252,-1.02848 2.25781,-2.28393 2.95508,-3.76563 0.7147,-1.4817 1.07226,-2.97953 1.07226,-4.49609 0,-2.78909 -0.73299,-4.96029 -2.19726,-6.51172 -1.46427,-1.55142 -3.64344,-2.70956 -6.53711,-3.47656 -1.42941,-0.36607 -3.17157,-0.72363 -5.22852,-1.07227 -2.05694,-0.34864 -3.64413,-0.64463 -4.75976,-0.88867 -2.10925,-0.48809 -3.58125,-1.19526 -4.41797,-2.11914 -0.83673,-0.92389 -1.25586,-2.19525 -1.25586,-3.8164 0,-1.81291 0.83631,-3.29482 2.50976,-4.44532 1.69088,-1.1505 3.92366,-1.72656 6.69532,-1.72656 2.5276,0 4.99285,0.41913 7.39843,1.25586 2.42302,0.81929 4.37573,1.85624 5.85743,3.11133 h 0.36718 v -6.11914 c -1.76061,-0.767 -3.78284,-1.41064 -6.0664,-1.9336 -2.28356,-0.52295 -4.79447,-0.78515 -7.53125,-0.78515 z m -641.218753,0.70508 v 38.93359 H 40.378906 V 199.7389 H 20.925781 v -34.33203 z m 48.898437,0 v 38.93359 H 90.296875 V 199.7389 H 69.822266 v -14.45899 h 20.474609 v -4.60156 H 69.822266 v -10.66797 h 20.474609 v -4.60351 z m 203.123046,0 v 38.93359 h 5.17774 v -15.47852 h 7.29492 l 13.02148,15.47852 h 6.72071 L 285.3418,187.31897 c 2.4753,-0.95875 4.4181,-2.37909 5.83008,-4.26171 1.41197,-1.90007 2.11718,-4.25404 2.11718,-7.06055 0,-2.07438 -0.39931,-3.78275 -1.20117,-5.125 -0.78443,-1.35968 -1.88295,-2.48403 -3.29492,-3.37305 -1.25509,-0.78442 -2.66747,-1.32475 -4.23633,-1.62109 -1.56886,-0.31378 -3.52952,-0.4707 -5.88281,-0.4707 z m 56.32422,0 v 38.93359 h 25.65039 v -4.60156 h -20.47266 v -14.45899 h 20.47266 v -4.60156 h -20.47266 v -10.66797 h 20.47266 v -4.60351 z m 62.59961,0 -14.17188,38.93359 h 5.25586 l 3.81836,-10.84961 h 16.83789 l 3.81836,10.84961 h 5.51758 l -14.17187,-38.93359 z m 37.70703,0 v 4.60351 h 13.91016 v 34.33008 h 5.17773 v -34.33008 h 13.91016 v -4.60351 z m 55.72266,0 v 3.9746 h 5.09961 v 30.98633 h -5.09961 v 3.97266 h 15.375 v -3.97266 h -5.09766 v -30.98633 h 5.09766 v -3.9746 z m 104.57031,0 v 38.93359 h 4.83594 v -34.82813 l 18.46093,34.82813 h 6.40625 v -38.93359 h -4.83789 v 31.79687 L 592.7207,165.40687 Z m 152.75976,0 v 38.93359 h 9.83204 c 3.57351,0 6.44993,-0.24238 8.6289,-0.73047 2.1964,-0.48809 4.1829,-1.28266 5.96094,-2.38086 2.56247,-1.58629 4.61249,-3.81712 6.14648,-6.69336 1.55143,-2.87624 2.32618,-6.08439 2.32618,-9.62305 0,-3.78269 -0.74096,-7.05046 -2.22266,-9.80468 -1.4817,-2.75422 -3.54764,-4.95922 -6.19727,-6.61524 -1.55143,-0.95874 -3.45052,-1.70766 -5.69921,-2.24804 -2.23127,-0.55782 -5.24675,-0.83789 -9.04688,-0.83789 z m 60.4043,0 v 38.93359 h 25.65039 v -4.60156 h -20.47265 v -14.45899 h 20.47265 v -4.60156 h -20.47265 v -10.66797 h 20.47265 v -4.60351 z m -258.5332,3.6621 c 3.92215,0 7.01708,1.37664 9.2832,4.13086 2.26614,2.73679 3.39844,6.63229 3.39844,11.6875 0,5.10752 -1.15018,9.02088 -3.45117,11.74024 -2.28356,2.70192 -5.36062,4.05273 -9.23047,4.05273 -3.86985,0 -6.95487,-1.35081 -9.25586,-4.05273 -2.301,-2.71936 -3.45117,-6.63272 -3.45117,-11.74024 0,-5.05521 1.12434,-8.95071 3.37304,-11.6875 2.26614,-2.75422 5.37698,-4.13086 9.33399,-4.13086 z m -266.37695,0.78321 h 6.09179 c 1.39454,0 2.60629,0.10527 3.63477,0.31445 1.02847,0.19175 1.9184,0.5394 2.66797,1.04492 0.90645,0.59268 1.5501,1.32568 1.93359,2.19727 0.40093,0.85416 0.60156,1.83944 0.60156,2.95508 0,1.46426 -0.19072,2.67602 -0.57422,3.63476 -0.36606,0.94132 -0.94213,1.77763 -1.72656,2.50977 -0.85416,0.78442 -1.89111,1.32475 -3.11133,1.62109 -1.22022,0.27891 -2.65047,0.41797 -4.28906,0.41797 h -5.22851 z m 469.68359,0 h 4.86328 c 2.40559,0 4.47153,0.1748 6.19727,0.52343 1.72574,0.33121 3.35662,0.9331 4.89062,1.80469 2.10924,1.20279 3.69447,2.8496 4.75781,4.94141 1.06334,2.09181 1.59571,4.66233 1.59571,7.71289 0,3.03313 -0.48867,5.5619 -1.46485,7.58398 -0.95874,2.02209 -2.40491,3.65102 -4.33984,4.88868 -1.55143,0.99361 -3.2598,1.67299 -5.125,2.03906 -1.84777,0.36606 -4.01898,0.55078 -6.51172,0.55078 h -4.86328 z m -352.61719,0.0781 6.82617,19.11524 h -13.67578 z m 229.25391,72.43946 v 22.63281 h 13.3125 v 120.35547 h -13.3125 v 22.63086 h 55.67578 V 385.35804 H 661.63672 V 265.00257 h 13.30664 v -22.63281 z m -326.41992,0.20312 v 23.8457 h 6.90039 l -36.64844,118.93555 h -16.29883 v 22.62891 h 55.67578 v -22.62891 h -10.41797 l 4.34766,-18.94531 h 66.07422 l 4.45508,18.9707 h -8.30078 v 22.63281 h 55.67968 V 385.37952 H 395.34766 L 358.12891,266.41858 h 7.60742 v -23.8457 z m 136.63867,0.10156 v 24.4375 h 20.6289 v 118.22657 h -11.62695 v 22.63086 h 55.67383 v -22.63084 h -14.99023 v -41.13672 h 41.84179 c 15.55,0 23.33399,20.04917 23.33399,35.82617 v 5.31055 h -14.35938 v 22.63086 h 55.66992 v -22.63086 h -12.2539 v -11.14063 c 0,-18.772 -8.49175,-40.83762 -25.46875,-41.89062 v -1.00586 c 10.995,-2.172 18.26526,-6.0973 21.82226,-11.7793 3.549,-5.683 5.32617,-16.26914 5.32617,-31.74414 0,-17.057 -3.55225,-28.8368 -10.65625,-35.3418 -7.105,-6.505 -20.04545,-9.75976 -38.81445,-9.75976 h -40.46094 v -0.002 z m -400.087892,0.002 v 0.008 H 14.390625 v 23.85937 H 29.398438 V 385.35413 H 14.582031 v 22.62891 H 70.255859 V 385.35413 H 58.453125 v -73.00976 c 0,-6.208 -0.226828,-13.65127 -0.673828,-22.32227 L 57.21875,278.79944 56.658203,267.69593 h 0.898438 l 3.476562,10.54297 3.476563,10.6582 c 3.066,9.422 5.532343,16.48917 7.402343,21.20117 l 33.992191,97.86328 h 26.47461 l 33.65234,-98.53906 c 1.722,-4.554 4.14992,-11.62822 7.29492,-21.19922 l 3.36524,-10.66016 3.47265,-10.65624 h 0.90039 l -0.56054,11.33398 -0.5625,11.43945 c -0.374,8.452 -0.56055,16.00707 -0.56055,22.66407 v 73.00976 h -13.46875 v 22.62891 h 55.67773 V 385.35413 H 208.4375 V 266.60999 h 16.35352 V 242.75257 H 208.4375 v -0.0742 h -48.35156 l -26.92383,71.12109 c -2.018,5.161 -4.41274,12.19275 -7.17773,21.09375 l -3.36524,10.54297 -3.25586,22.70508 h -1.00586 l -3.47851,-22.70508 -3.36524,-10.66015 c -3.067,-9.198 -5.53534,-16.26413 -7.40234,-21.20313 L 76.738281,242.6764 Z m 690.890622,0 v 0.0371 h -11.91797 v 22.63476 h 11.91797 v 119.25 h -11.91797 v 23.37695 h 55.68164 v -0.0137 h 39.05665 v 0.0156 h 22.63085 v -37.84766 h -22.63085 v 13.38086 h -53.76172 v -47.26367 h 71.79101 v -21.42774 h -71.79101 v -47.6875 h 53.05273 V 280.524 h 22.63477 v -13.39258 h 0.0332 V 242.67635 Z M 328.88281,266.4186 h 0.78711 l 26.08203,78.56836 H 303.25 Z m 150.29102,0.71094 h 43.74805 c 9.49599,0 15.64717,1.59253 18.45117,4.76953 2.804,3.181 4.21289,10.22953 4.21289,21.14453 0,10.697 -1.63282,17.81905 -4.88282,21.37305 -3.25199,3.555 -9.85773,5.32813 -19.80273,5.32813 h -41.72656 z"
     id="polygon2"
     inkscape:connector-curvature="0" /></svg>