<?xml version="1.0" encoding="UTF-8" standalone="no"?>
<!-- Created with Inkscape (http://www.inkscape.org/) -->

<svg
   xmlns:dc="http://purl.org/dc/elements/1.1/"
   xmlns:cc="http://creativecommons.org/ns#"
   xmlns:rdf="http://www.w3.org/1999/02/22-rdf-syntax-ns#"
   xmlns:svg="http://www.w3.org/2000/svg"
   xmlns="http://www.w3.org/2000/svg"
   xmlns:sodipodi="http://sodipodi.sourceforge.net/DTD/sodipodi-0.dtd"
   xmlns:inkscape="http://www.inkscape.org/namespaces/inkscape"
   width="512"
   height="512"
   viewBox="0 0 512.00001 512.00001"
   id="svg2"
   version="1.1"
   inkscape:version="0.91 r13725"
   sodipodi:docname="linkedin_logo.svg">
  <defs
     id="defs4" />
  <sodipodi:namedview
     id="base"
     pagecolor="#ffffff"
     bordercolor="#666666"
     borderopacity="1.0"
     inkscape:pageopacity="0.0"
     inkscape:pageshadow="2"
     inkscape:zoom="0.7"
     inkscape:cx="52.23325"
     inkscape:cy="303.78829"
     inkscape:document-units="px"
     inkscape:current-layer="layer1"
     showgrid="false"
     units="px"
     inkscape:window-width="1920"
     inkscape:window-height="1018"
     inkscape:window-x="-8"
     inkscape:window-y="-8"
     inkscape:window-maximized="1" />
  <metadata
     id="metadata7">
    <rdf:RDF>
      <cc:Work
         rdf:about="">
        <dc:format>image/svg+xml</dc:format>
        <dc:type
           rdf:resource="http://purl.org/dc/dcmitype/StillImage" />
        <dc:title></dc:title>
      </cc:Work>
    </rdf:RDF>
  </metadata>
  <g
     inkscape:label="Calque 1"
     inkscape:groupmode="layer"
     id="layer1"
     transform="translate(0,-540.36216)">
    <path
       style="opacity:1;fill:#007bb5;fill-opacity:1;fill-rule:evenodd;stroke:none;stroke-width:17.8571434;stroke-linecap:round;stroke-linejoin:miter;stroke-miterlimit:4;stroke-dasharray:none;stroke-dashoffset:0;stroke-opacity:1"
       d="M 18.334577,507.79037 C 10.637463,503.98035 4.1998856,496.65809 2.2805082,489.53007 1.2527305,485.71319 0.89570863,411.18711 1.1489659,253.32765 L 1.5189645,22.701536 5.8267348,15.734082 C 8.9629154,10.661575 12.212658,7.6809878 17.77558,4.7748826 l 7.641075,-3.99174514 229.807965,0 c 210.1269,0 230.3304,0.20183743 235.90829,2.35677584 7.74018,2.9903033 13.19228,8.0176127 16.81825,15.5078687 2.8167,5.81851 2.85312,8.879523 2.82215,237.229238 -0.0301,222.1237 -0.13672,231.56222 -2.677,237.04897 -3.24195,7.00226 -9.13122,12.69643 -16.17432,15.6385 -4.72751,1.9748 -30.713,2.21852 -236.42857,2.21752 l -231.117313,-0.001 -6.04153,-2.99051 z m 158.184383,-219.89119 0,-112.88397 -32.5,0.38397 -32.5,0.38396 -0.36579,112.5 -0.3658,112.5 32.86579,0 32.8658,0 0,-112.88396 z m 96.00735,43.95539 0.42123,-68.92858 3.57142,-7.14285 c 5.21148,-10.42293 12.72092,-14.25159 27.85715,-14.20279 12.17115,0.0393 17.38471,1.8446 23.1461,8.01512 7.50711,8.04021 7.56818,8.70654 7.56818,82.57035 l 0,68.61732 32.85715,0 32.85714,0 -0.0129,-68.92857 c -0.0129,-70.88002 -1.08187,-89.28115 -6.30628,-108.59543 -6.83642,-25.27376 -22.82728,-41.00995 -46.92872,-46.18135 -18.01707,-3.8659 -45.19464,-1.5218 -57.85481,4.99003 -6.05862,3.11627 -11.79945,8.8742 -15.0989,15.14389 -2.20363,4.18734 -2.2567,3.9824 -2.31259,-8.92857 l -0.0573,-13.21429 -32.14286,0 -32.14285,0 0,112.85714 0,112.85715 32.07877,0 32.07878,0 0.42122,-68.92857 z M 154.20051,159.02439 c 7.91435,-2.3712 18.71584,-12.98771 20.73927,-20.38411 3.73184,-13.64129 1.02766,-24.62899 -8.28532,-33.66503 -15.62792,-15.163248 -39.30873,-12.158215 -50.81202,6.44791 -3.66542,5.92868 -4.32348,8.42345 -4.32348,16.39081 0,7.69787 0.71637,10.61639 3.96043,16.13504 8.35114,14.20663 22.8195,19.83963 38.72112,15.07538 z"
       id="path4147"
       inkscape:connector-curvature="0"
       transform="translate(0,540.36216)" />
  </g>
</svg>
