<?xml version="1.0" encoding="UTF-8" standalone="no"?>
<!-- Generator: Adobe Illustrator 16.0.0, SVG Export Plug-In . SVG Version: 6.00 Build 0)  -->

<svg
   xmlns:dc="http://purl.org/dc/elements/1.1/"
   xmlns:cc="http://creativecommons.org/ns#"
   xmlns:rdf="http://www.w3.org/1999/02/22-rdf-syntax-ns#"
   xmlns:svg="http://www.w3.org/2000/svg"
   xmlns="http://www.w3.org/2000/svg"
   xmlns:sodipodi="http://sodipodi.sourceforge.net/DTD/sodipodi-0.dtd"
   xmlns:inkscape="http://www.inkscape.org/namespaces/inkscape"
   version="1.1"
   id="Calque_2"
   x="0px"
   y="0px"
   width="800"
   height="800"
   viewBox="0 0 799.99999 799.99997"
   enable-background="new 0 0 841.89 420.765"
   xml:space="preserve"
   sodipodi:docname="logo_simple_marie.svg"
   inkscape:version="0.92.2 (5c3e80d, 2017-08-06)"
   inkscape:export-filename="C:\Users\tibid\Dropbox\Marie et Thibault\Les Créations de Marie\Logo\logo_vectoriel.png"
   inkscape:export-xdpi="218.90736"
   inkscape:export-ydpi="218.90736"><metadata
     id="metadata7"><rdf:RDF><cc:Work
         rdf:about=""><dc:format>image/svg+xml</dc:format><dc:type
           rdf:resource="http://purl.org/dc/dcmitype/StillImage" /><dc:title /></cc:Work></rdf:RDF></metadata><defs
     id="defs5" /><sodipodi:namedview
     pagecolor="#ffffff"
     bordercolor="#666666"
     borderopacity="1"
     objecttolerance="10"
     gridtolerance="10"
     guidetolerance="10"
     inkscape:pageopacity="0"
     inkscape:pageshadow="2"
     inkscape:window-width="1312"
     inkscape:window-height="991"
     id="namedview63"
     showgrid="false"
     inkscape:zoom="0.5273848"
     inkscape:cx="182.34929"
     inkscape:cy="258.15684"
     inkscape:window-x="-8"
     inkscape:window-y="0"
     inkscape:window-maximized="0"
     inkscape:current-layer="Calque_2" /><path
     style="fill:#000000;fill-opacity:1;stroke:none;stroke-width:2.66908932"
     d="m 544.01073,28.468471 c -0.81631,0.05195 -1.68148,0.452694 -2.56028,0.96693 0.69265,-0.167829 3.58609,-0.899256 3.58609,-0.899256 -0.33572,-0.06542 -0.67719,-0.08953 -1.02581,-0.06784 z m -2.56028,0.96693 c -5.03109,1.220993 -24.10498,5.897679 -37.34494,10.375641 -15.06136,5.054884 -34.99574,-5.359743 -52.36947,108.832748 -17.3651,114.11828 -40.47061,501.63918 -62.21439,541.54347 0,0 29.19708,-7.39344 36.52991,-15.60695 12.89864,-14.36257 26.17879,-64.22284 34.52607,-115.73696 8.3516,-51.51411 36.42503,-373.90181 46.29615,-431.55996 8.82613,-51.632649 23.82157,-91.554078 34.57667,-97.847989 z m 6.47803,4.361043 c -0.32947,0.07326 -0.47778,0.261145 -0.47778,0.261145 0,0 -16.88341,2.593574 -32.54192,72.435941 0,0 28.12874,43.21655 76.9073,278.2754 18.07018,87.16055 33.59758,159.81639 59.6035,273.89504 19.13786,83.95737 63.46412,174.44869 138.26731,-107.83677 0,0 -65.61699,138.04137 -96.70956,36.90933 C 661.90779,486.53015 606.04837,218.7348 591.34674,159.53189 561.33678,38.776364 550.23471,33.282898 547.92848,33.796444 Z M 313.73571,114.93516 c 0,0 -13.74554,10.19172 -34.68064,30.2082 -20.93798,19.98682 -21.00366,24.82679 -26.34212,64.03294 -5.3399,39.20124 -21.7656,182.50982 -29.72869,266.32363 -7.95876,83.80392 -37.03858,171.47333 -37.03858,171.47333 0,0 39.208,-48.65512 63.74045,-116.23985 24.51948,-67.68375 47.59763,-270.89819 49.02505,-328.62568 1.42024,-57.65818 15.02453,-87.17257 15.02453,-87.17257 z m 4.17068,2.41741 c 0,0 -11.99474,18.55867 -14.99925,56.61625 -2.9714,38.04273 -2.13029,72.06848 -2.13029,72.06848 0,0 40.42817,337.95747 53.54985,393.63528 13.10153,55.81152 25.30825,53.37882 32.96628,43.60083 7.65227,-9.71862 15.51355,-76.23618 15.51355,-76.23618 0,0 -3.02622,1.43961 -7.72867,-25.325 -4.69094,-26.68533 -45.48427,-343.73369 -53.98264,-395.3468 -8.50557,-51.63294 -23.18883,-69.01286 -23.18883,-69.01286 z M 7.0424161,455.38692 C 27.351586,557.61806 66.723961,694.28828 116.63496,705.79418 c 49.87071,11.41185 70.10606,-77.99602 70.10606,-77.99602 -16.74348,20.82843 -45.61075,11.91887 -81.98853,-24.22267 C 68.376135,567.33487 7.0424161,455.38692 7.0424161,455.38692 Z"
     id="polygon2"
     inkscape:connector-curvature="0"
     sodipodi:nodetypes="ccccccccccccscccccccscccccccccccccccccccccc" /></svg>