<?xml version="1.0" encoding="UTF-8" standalone="no"?>
<!-- Generator: Adobe Illustrator 16.0.0, SVG Export Plug-In . SVG Version: 6.00 Build 0)  -->

<svg
   xmlns:dc="http://purl.org/dc/elements/1.1/"
   xmlns:cc="http://creativecommons.org/ns#"
   xmlns:rdf="http://www.w3.org/1999/02/22-rdf-syntax-ns#"
   xmlns:svg="http://www.w3.org/2000/svg"
   xmlns="http://www.w3.org/2000/svg"
   xmlns:sodipodi="http://sodipodi.sourceforge.net/DTD/sodipodi-0.dtd"
   xmlns:inkscape="http://www.inkscape.org/namespaces/inkscape"
   version="1.1"
   id="Calque_2"
   x="0px"
   y="0px"
   width="800"
   height="800"
   viewBox="0 0 799.99999 799.99997"
   enable-background="new 0 0 841.89 420.765"
   xml:space="preserve"
   sodipodi:docname="logo_simple_marie.svg"
   inkscape:version="0.92.2 (5c3e80d, 2017-08-06)"
   inkscape:export-filename="C:\Users\tibid\Dropbox\Marie et Thibault\Les Créations de Marie\Logo\logo_vectoriel.png"
   inkscape:export-xdpi="218.90736"
   inkscape:export-ydpi="218.90736"><metadata
     id="metadata7"><rdf:RDF><cc:Work
         rdf:about=""><dc:format>image/svg+xml</dc:format><dc:type
           rdf:resource="http://purl.org/dc/dcmitype/StillImage" /><dc:title></dc:title></cc:Work></rdf:RDF></metadata><defs
     id="defs5" /><sodipodi:namedview
     pagecolor="#ffffff"
     bordercolor="#666666"
     borderopacity="1"
     objecttolerance="10"
     gridtolerance="10"
     guidetolerance="10"
     inkscape:pageopacity="0"
     inkscape:pageshadow="2"
     inkscape:window-width="1280"
     inkscape:window-height="961"
     id="namedview63"
     showgrid="false"
     inkscape:zoom="0.5273848"
     inkscape:cx="600.45008"
     inkscape:cy="258.15684"
     inkscape:window-x="1358"
     inkscape:window-y="-8"
     inkscape:window-maximized="1"
     inkscape:current-layer="Calque_2" /><path
     style="fill:#000000;fill-opacity:1;stroke:none;stroke-width:1.95238876"
     d="m 545.90688,168.77979 c -0.81631,0.0278 -1.68148,0.24222 -2.56028,0.51737 0.69265,-0.0898 3.58609,-0.48116 3.58609,-0.48116 -0.33572,-0.035 -0.67719,-0.0479 -1.02581,-0.0363 z m -2.56028,0.51737 c -5.03109,0.65331 -24.10498,3.15564 -37.34494,5.55164 -15.06136,2.70469 -34.99574,-2.86781 -52.36947,58.23257 -17.3651,61.06067 -40.47061,268.40945 -62.21439,289.76083 0,0 29.19708,-3.95597 36.52991,-8.35073 12.89864,-7.68491 26.17879,-34.36338 34.52607,-61.92677 8.3516,-27.56339 36.42503,-200.06168 46.29615,-230.91253 8.82613,-27.62681 23.82157,-48.98736 34.57667,-52.35501 z m 6.47803,2.33344 c -0.32947,0.0392 -0.47778,0.13973 -0.47778,0.13973 0,0 -16.88341,1.38773 -32.54192,38.75792 0,0 28.12874,23.12365 76.9073,148.89536 18.07018,46.63654 33.59758,85.51212 59.6035,146.55159 19.13786,44.92263 63.46412,93.34135 138.26731,-57.69966 0,0 -65.61699,73.86107 -96.70956,19.74888 C 663.80394,413.87245 607.94452,270.5846 593.24289,238.90721 563.23293,174.29518 552.13086,171.35582 549.82463,171.6306 Z m -234.19277,43.41447 c 0,0 -13.74554,5.45323 -34.68064,16.16334 -20.93798,10.69424 -21.00366,13.28394 -26.34212,34.26177 -5.3399,20.9752 -21.7656,97.65458 -29.72869,142.50039 -7.95876,44.84053 -37.03858,91.74934 -37.03858,91.74934 0,0 39.208,-26.03364 63.74045,-62.19585 24.51948,-36.21519 47.59763,-144.94808 49.02505,-175.83602 1.42024,-30.85086 15.02453,-46.64297 15.02453,-46.64297 z m 4.17068,1.29347 c 0,0 -11.99474,9.93009 -14.99925,30.29336 -2.9714,20.35532 -2.13029,38.5613 -2.13029,38.5613 0,0 40.42817,180.82914 53.54985,210.62037 13.10153,29.86278 25.30825,28.56113 32.96628,23.32927 7.65227,-5.20009 15.51355,-40.79129 15.51355,-40.79129 0,0 -3.02622,0.77028 -7.72867,-13.55052 -4.69094,-14.27838 -45.48427,-183.91979 -53.98264,-211.53614 -8.50557,-27.62697 -23.18883,-36.92635 -23.18883,-36.92635 z M 8.9385648,397.20881 c 20.3091702,54.70028 59.6815452,127.8277 109.5925452,133.9841 49.87071,6.10608 70.10606,-41.73292 70.10606,-41.73292 -16.74348,11.14456 -45.61075,6.37737 -81.98853,-12.9607 C 70.272284,457.10821 8.9385648,397.20881 8.9385648,397.20881 Z"
     id="polygon2"
     inkscape:connector-curvature="0"
     sodipodi:nodetypes="ccccccccccccscccccccscccccccccccccccccccccc" /></svg>