<?xml version="1.0" encoding="UTF-8" standalone="no"?>
<!-- Created with Inkscape (http://www.inkscape.org/) -->

<svg
   xmlns:dc="http://purl.org/dc/elements/1.1/"
   xmlns:cc="http://creativecommons.org/ns#"
   xmlns:rdf="http://www.w3.org/1999/02/22-rdf-syntax-ns#"
   xmlns:svg="http://www.w3.org/2000/svg"
   xmlns="http://www.w3.org/2000/svg"
   xmlns:sodipodi="http://sodipodi.sourceforge.net/DTD/sodipodi-0.dtd"
   xmlns:inkscape="http://www.inkscape.org/namespaces/inkscape"
   id="svg4136"
   version="1.1"
   inkscape:version="0.92.2 (5c3e80d, 2017-08-06)"
   xml:space="preserve"
   width="90"
   height="67.230591"
   viewBox="0 0 89.999999 67.230588"
   sodipodi:docname="logo_soprasteria.svg"><metadata
     id="metadata4142"><rdf:RDF><cc:Work
         rdf:about=""><dc:format>image/svg+xml</dc:format><dc:type
           rdf:resource="http://purl.org/dc/dcmitype/StillImage" /><dc:title></dc:title></cc:Work></rdf:RDF></metadata><defs
     id="defs4140"><clipPath
       clipPathUnits="userSpaceOnUse"
       id="clipPath9064"><path
         d="M 0,858.898 H 612.283 V 0 H 0 Z"
         id="path9066"
         inkscape:connector-curvature="0" /></clipPath></defs><sodipodi:namedview
     pagecolor="#ffffff"
     bordercolor="#666666"
     borderopacity="1"
     objecttolerance="10"
     gridtolerance="10"
     guidetolerance="10"
     inkscape:pageopacity="0"
     inkscape:pageshadow="2"
     inkscape:window-width="1920"
     inkscape:window-height="1001"
     id="namedview4138"
     showgrid="false"
     fit-margin-bottom="3"
     fit-margin-left="3"
     fit-margin-top="3"
     fit-margin-right="3"
     inkscape:zoom="2"
     inkscape:cx="203.2184"
     inkscape:cy="3.2017457"
     inkscape:window-x="-9"
     inkscape:window-y="-9"
     inkscape:window-maximized="1"
     inkscape:current-layer="g9060" /><g
     id="g4144"
     inkscape:groupmode="layer"
     inkscape:label="sopra-steria-overview"
     transform="matrix(1.25,0,0,-1.25,-175.33837,418.5115)"><g
       id="g9060"
       transform="matrix(1.9216907,0,0,1.9216907,-538.89669,216.3214)"><g
         id="g927"
         transform="translate(-84.092617,0.20815004)"><path
           inkscape:connector-curvature="0"
           id="path9070"
           style="fill:#f47216;fill-opacity:1;fill-rule:nonzero;stroke:none"
           d="m 463.6973,39.6514 c -0.165,-0.109 -0.365,-0.234 -0.547,-0.341 l -0.057,-0.031 0.057,-0.007 c 3.577,-0.981 7.121,-0.945 7.802,1.288 0.881,2.882 -4.814,5.975 -7.501,7.449 -0.575,0.316 -0.826,0.119 -0.458,-0.302 1.696,-1.955 4.113,-5.798 0.704,-8.056" /><path
           inkscape:connector-curvature="0"
           id="path9120"
           style="fill:#db1d2b;fill-opacity:1;fill-rule:nonzero;stroke:none"
           d="m 463.0977,39.2803 c 0,0 -4.508,-2.831 -12.459,-2.831 -3.081,0 -5.676,0.471 -6.773,1.55 -1.156,1.136 -1.782,3.051 -1.782,4.812 0,1.509 0.626,2.777 1.931,2.777 3.354,0 13.8,-5.314 19.083,-6.308" /><path
           inkscape:connector-curvature="0"
           id="path9124"
           style="fill:#f47216;fill-opacity:1;fill-rule:nonzero;stroke:none"
           d="m 448.0791,55.7051 c 0.165,0.109 0.365,0.233 0.547,0.34 l 0.057,0.032 -0.057,0.006 c -3.577,0.982 -7.121,0.945 -7.802,-1.287 -0.881,-2.883 4.814,-5.976 7.501,-7.45 0.575,-0.316 0.824,-0.119 0.458,0.302 -1.695,1.955 -4.113,5.799 -0.704,8.057" /><path
           inkscape:connector-curvature="0"
           id="path9128"
           style="fill:#db1d2b;fill-opacity:1;fill-rule:nonzero;stroke:none"
           d="m 448.6787,56.0752 c 0,0 4.508,2.831 12.461,2.831 3.081,0 5.674,-0.471 6.771,-1.55 1.156,-1.136 1.782,-3.051 1.782,-4.812 0,-1.508 -0.626,-2.777 -1.931,-2.777 -3.354,0 -13.8,5.314 -19.083,6.308" /></g></g></g></svg>