<?xml version="1.0" encoding="UTF-8" standalone="no"?>
<!-- Created with Inkscape (http://www.inkscape.org/) -->

<svg
   xmlns:dc="http://purl.org/dc/elements/1.1/"
   xmlns:cc="http://creativecommons.org/ns#"
   xmlns:rdf="http://www.w3.org/1999/02/22-rdf-syntax-ns#"
   xmlns:svg="http://www.w3.org/2000/svg"
   xmlns="http://www.w3.org/2000/svg"
   xmlns:sodipodi="http://sodipodi.sourceforge.net/DTD/sodipodi-0.dtd"
   xmlns:inkscape="http://www.inkscape.org/namespaces/inkscape"
   width="400"
   height="400"
   viewBox="0 0 399.99998 399.99998"
   id="svg2"
   version="1.1"
   inkscape:version="0.92.2 (5c3e80d, 2017-08-06)"
   sodipodi:docname="logo_simple_forever.svg">
  <defs
     id="defs4">
    <clipPath
       clipPathUnits="userSpaceOnUse"
       id="clipPath4171">
      <rect
         style="opacity:1;fill:#ffffff;fill-opacity:0.99215686;fill-rule:evenodd;stroke:none;stroke-width:3;stroke-linecap:round;stroke-linejoin:miter;stroke-miterlimit:4;stroke-dasharray:none;stroke-dashoffset:0;stroke-opacity:1"
         id="rect4173"
         width="191.42857"
         height="174.28572"
         x="95.714287"
         y="662.36218" />
    </clipPath>
  </defs>
  <sodipodi:namedview
     id="base"
     pagecolor="#ffffff"
     bordercolor="#666666"
     borderopacity="1.0"
     inkscape:pageopacity="0.0"
     inkscape:pageshadow="2"
     inkscape:zoom="1.4"
     inkscape:cx="180.80095"
     inkscape:cy="162.90161"
     inkscape:document-units="px"
     inkscape:current-layer="layer1"
     showgrid="false"
     inkscape:window-width="1280"
     inkscape:window-height="961"
     inkscape:window-x="1358"
     inkscape:window-y="-8"
     inkscape:window-maximized="1"
     units="px" />
  <metadata
     id="metadata7">
    <rdf:RDF>
      <cc:Work
         rdf:about="">
        <dc:format>image/svg+xml</dc:format>
        <dc:type
           rdf:resource="http://purl.org/dc/dcmitype/StillImage" />
        <dc:title />
      </cc:Work>
    </rdf:RDF>
  </metadata>
  <g
     inkscape:label="Calque 1"
     inkscape:groupmode="layer"
     id="layer1"
     transform="translate(0,-652.36216)">
    <path
       style="opacity:1;fill:#000000;fill-opacity:0;fill-rule:evenodd;stroke:none;stroke-width:3;stroke-linecap:round;stroke-linejoin:miter;stroke-miterlimit:4;stroke-dasharray:none;stroke-dashoffset:0;stroke-opacity:1"
       d="m 163.34917,889.74335 c -1.13481,-2.55602 -3.92726,-3.64806 -7.13742,-2.79121 -2.66217,0.71057 -2.78579,0.67384 -2.78579,-0.82799 0,-1.79986 -1.31965,-3.3111 -4.18547,-4.79305 -1.9739,-1.02075 -2.00925,-1.00511 -3.15451,1.39657 l -1.15826,2.42888 -2.14501,-2.07903 c -2.33034,-2.25864 -3.06871,-2.1084 -3.11289,0.63344 -0.0282,1.75097 -0.057,1.74095 -2.30345,-0.80077 -2.47095,-2.79572 -3.15899,-3.13209 -3.15899,-1.54434 0,1.80438 -1.24753,1.12736 -5.05903,-2.74552 -2.04337,-2.07629 -3.90311,-3.77508 -4.13275,-3.77508 -0.22963,0 -0.42863,0.54051 -0.44219,1.20116 -0.0583,2.83931 -7.52548,-8.07741 -7.52548,-11.00202 0,-1.09008 -0.23165,-1.86336 -0.51478,-1.71841 -5.356,2.74216 -12.5901,6.02825 -13.27074,6.02825 -0.49477,0 -0.0717,-0.84915 0.95911,-1.92511 1.0144,-1.0588 1.84436,-2.13984 1.84436,-2.40232 0,-0.26247 -1.26122,-0.47722 -2.80271,-0.47722 -1.54149,0 -2.69721,-0.23166 -2.56827,-0.51479 0.12894,-0.28313 1.38613,-2.73836 2.79374,-5.45607 1.42641,-2.75399 2.26916,-5.12057 1.90387,-5.34635 -0.36048,-0.22278 -4.01797,0.088 -8.127744,0.69076 -4.109771,0.6027 -9.1388,0.98746 -11.17562,0.85502 l -3.703304,-0.24078 2.917106,-1.27542 c 1.604408,-0.70147 2.917107,-1.49043 2.917107,-1.75323 0,-0.2628 -3.033764,-0.33174 -6.741693,-0.15318 -5.31407,0.25589 -7.167258,0.0942 -8.751322,-0.76334 -1.105293,-0.59838 -1.643644,-1.10034 -1.196335,-1.11546 0.44731,-0.0151 1.68279,-0.35942 2.745513,-0.76512 1.863632,-0.71148 1.884924,-0.77239 0.599872,-1.71596 -1.91029,-1.40265 -6.742857,-1.21523 -19.25899,0.7469 -11.324149,1.77527 -24.366418,2.93265 -24.366418,2.16227 0,-0.24043 1.158264,-0.9683 2.573917,-1.61749 l 2.573917,-1.18032 -2.745511,-0.2475 c -3.841442,-0.3463 -4.387339,-1.25517 -1.072287,-1.78527 3.288625,-0.52587 3.623397,-1.46376 0.729098,-2.04262 -3.676126,-0.73523 -2.244855,-1.81891 2.402323,-1.81891 2.516719,0 4.461456,-0.29918 4.461456,-0.68637 0,-0.37751 -0.525078,-0.68638 -1.166842,-0.68638 -2.839392,0 0.497182,-1.3568 4.264785,-1.73425 7.470643,-0.74844 8.003291,-1.03058 4.109026,-2.17649 -1.887539,-0.55541 -3.740759,-1.32735 -4.118267,-1.7154 -0.466082,-0.47911 -0.245787,-0.58406 0.686377,-0.32701 4.085829,1.12672 13.479766,2.01788 21.964096,2.08366 l 9.609291,0.0744 8.613165,-3.15028 c 10.969391,-4.01207 21.930654,-8.81155 21.930654,-9.60252 0,-0.33641 -1.26614,-0.61165 -2.81365,-0.61165 -2.02745,0 -3.923512,0.68505 -6.785619,2.45164 -2.929811,1.80838 -4.577777,2.39368 -6.28086,2.23073 -2.118897,-0.20273 -2.308028,-0.40972 -2.298445,-2.5153 0.01031,-2.26445 -0.02101,-2.28773 -2.402323,-1.78406 -1.327023,0.28068 -3.957114,0.54098 -5.844654,0.57845 -3.415471,0.0678 -3.433529,0.0566 -3.775078,-2.33422 l -0.34319,-2.40231 -6.556458,-0.34319 c -8.623278,-0.45138 -11.094868,-2.03853 -12.291945,-7.89335 -0.306518,-1.49915 -0.870467,-2.12356 -2.073737,-2.296 -2.898785,-0.41545 -13.455803,-12.11194 -19.446632,-21.5456 -5.752116,-9.05775 -10.161235,-20.32963 -10.350915,-26.46202 -0.109426,-3.53778 -0.220648,-3.72645 -4.382142,-7.43339 -2.348426,-2.09191 -4.269865,-4.24873 -4.269865,-4.79293 0,-0.5442 0.755255,-1.33357 1.678346,-1.75417 l 1.678348,-0.7647 -2.707916,-3.21142 c -1.489352,-1.76628 -2.707913,-3.38573 -2.707913,-3.59877 0,-0.21303 0.92661,-0.77116 2.059135,-1.24026 1.132523,-0.46911 2.059134,-1.00603 2.059134,-1.19316 0,-0.18714 -1.235481,-1.53923 -2.745513,-3.00467 -1.510032,-1.46543 -2.745511,-3.11721 -2.745511,-3.67061 0,-1.63601 2.575118,-2.54537 8.323873,-2.93939 2.972027,-0.2037 5.403686,-0.56641 5.403686,-0.80602 0,-0.23961 -2.777729,-1.465 -6.172731,-2.7231 -4.515232,-1.67322 -6.726901,-2.91861 -8.236535,-4.63799 -1.135093,-1.29279 -2.0638046,-2.64866 -2.0638046,-3.01304 0,-0.81453 3.6130616,-0.81523 9.9281066,-0.002 7.510394,0.96725 7.642016,0.0109 0.515813,-3.74597 -5.799674,-3.05792 -14.7986446,-10.64216 -12.6273002,-10.64216 1.3479829,0 16.6826842,4.59973 22.9032942,6.86997 3.093859,1.12912 5.92879,2.05294 6.299847,2.05294 1.73306,0 -3.241602,-3.79124 -11.398648,-8.68703 -6.611165,-3.96798 -9.664003,-6.25727 -11.60917,-8.70564 -4.4865807,-5.64724 -3.779478,-5.79998 6.237541,-1.34735 8.457483,3.75942 15.143151,7.20288 23.782223,12.24911 2.044613,1.19429 4.405459,1.03836 4.405459,-0.29097 0,-0.35615 -3.412811,-3.63569 -7.584024,-7.28786 -11.070354,-9.69282 -18.949961,-19.89987 -18.373531,-23.80061 0.234363,-1.58597 3.223791,0.78437 25.471009,20.19612 5.565529,4.85619 9.822274,8.06494 10.698978,8.06494 0.800796,0 1.455993,-0.17836 1.455993,-0.39636 0,-0.21799 -2.801887,-3.53836 -6.226414,-7.37856 -7.348656,-8.24066 -11.731981,-14.59948 -14.127138,-20.49399 -1.87761,-4.62083 -2.955145,-11.54101 -1.79704,-11.54101 0.380563,0 2.714851,3.07964 5.187305,6.84364 5.275774,8.03168 22.094013,29.24926 23.661347,29.85071 2.451491,0.94072 1.950936,-0.9623 -1.618013,-6.15141 -8.462195,-12.30369 -11.943826,-20.39942 -11.943826,-27.77259 0,-2.61167 0.231653,-4.8915 0.514785,-5.06629 0.28313,-0.17481 4.221224,6.50161 8.751317,14.83647 9.759959,17.95722 16.598193,29.28792 18.000401,29.82601 2.141184,0.82165 1.965106,-1.47981 -0.561588,-7.34054 -2.862251,-6.63905 -4.741211,-15.64859 -4.728114,-22.67119 0.0114,-6.12557 0.949995,-7.33576 2.052853,-2.64692 1.41107,5.9992 12.810855,38.84383 14.34171,41.3208 1.427399,2.30957 5.203459,5.99499 13.021869,12.70927 5.6926,4.88868 7.03522,7.11418 10.40956,17.25464 6.12568,18.40875 18.06846,38.43717 22.91976,38.43717 0.98291,0 0.14057,-1.90397 -2.79762,-6.32366 -3.71634,-5.59017 -7.35813,-12.77975 -9.2314,-18.22452 l -1.32398,-3.84819 1.81885,-2.78967 c 2.41771,-3.70818 13.89037,-15.02156 19.47262,-19.20226 5.62741,-4.21453 12.1119,-7.35457 14.13787,-6.84609 1.11657,0.28025 1.63504,0.017 1.95559,-0.99297 0.8229,-2.59274 3.05136,-4.81019 4.46307,-4.44102 0.75028,0.1962 2.22567,-0.28108 3.35526,-1.08543 1.79234,-1.27625 2.11298,-1.31897 2.88825,-0.38482 0.76516,0.92196 1.14606,0.78526 3.1066,-1.11497 1.22898,-1.19117 2.53444,-1.98041 2.901,-1.75385 0.36657,0.22655 0.87638,1.81159 1.13293,3.52234 0.53702,3.58116 1.3845,3.54966 1.97241,-0.0734 0.39314,-2.42256 2.1281,-5.07938 3.31695,-5.07938 0.31899,0 0.58421,1.62157 0.58935,3.60349 0.0164,6.28858 1.46446,8.99787 2.33344,4.36573 0.49128,-2.61871 4.36185,-10.71473 5.12252,-10.71473 0.58601,0 -0.31277,10.57234 -1.3068,15.37207 -0.71956,3.47444 -0.38504,4.90259 0.73555,3.14026 0.35311,-0.55533 1.6956,-3.69275 2.9833,-6.97202 2.36277,-6.0171 5.59006,-11.13227 6.62146,-10.49483 0.62872,0.38857 -2.76199,13.61188 -4.84625,18.89967 -1.52744,3.87516 -1.757,6.38497 -0.54715,5.98169 0.44538,-0.14846 2.3882,-2.81447 4.31738,-5.92446 4.25739,-6.86328 8.67327,-12.09971 11.38723,-13.50314 1.10981,-0.57391 2.01783,-0.89765 2.01783,-0.71942 0,0.43097 -3.88532,7.1054 -10.06072,17.28286 -2.77177,4.56806 -5.03959,8.66059 -5.03959,9.09451 0,1.68715 1.35352,0.5885 5.57029,-4.52146 5.38687,-6.52788 7.99148,-8.90015 12.44438,-11.33425 5.94578,-3.25018 5.79981,-2.11951 -0.57598,4.46145 -9.46131,9.76578 -14.00679,15.13576 -14.00679,16.54743 0,1.28978 1.00282,0.55055 7.55016,-5.56561 3.24475,-3.03107 8.70199,-6.27337 11.92484,-7.0849 1.77544,-0.44705 3.38375,-0.65713 3.57405,-0.46683 0.1903,0.1903 -3.29632,3.23082 -7.74805,6.75671 -4.45172,3.52589 -10.34597,8.40091 -13.09832,10.83337 -6.08323,5.37623 -5.76413,6.92987 0.6486,3.15783 5.06053,-2.97666 10.15333,-4.86015 14.79673,-5.4723 l 3.28651,-0.43327 -4.66565,2.42124 c -11.90647,6.17884 -22.25255,12.13015 -23.6061,13.57879 -0.81751,0.87493 -2.13292,3.32478 -2.92317,5.44411 -1.71528,4.60013 -2.59127,5.46897 -7.94724,7.88225 -5.26409,2.3719 -12.00195,7.12561 -14.64559,10.33281 l -2.07008,2.51136 3.21931,2.42516 c 6.00765,4.52565 11.80821,9.88807 14.13578,13.06803 2.99466,4.09135 4.29201,8.24998 3.20646,10.27836 -0.5998,1.1207 -0.58988,2.45066 0.041,5.50515 0.94189,4.56023 0.23923,7.35343 -2.23925,8.90127 -0.78074,0.48758 -1.46665,0.78789 -1.52428,0.66735 -3.27764,-6.85691 -4.47323,-8.47467 -7.89144,-10.67789 -10.77491,-6.94505 -15.70145,-6.63581 -19.69039,1.23595 -0.93081,1.83688 -2.92201,5.24225 -4.42488,7.56749 l -2.7325,4.2277 1.52223,2.14569 c 0.83722,1.18013 2.91587,3.99891 4.61923,6.26396 1.70336,2.26505 4.27548,6.74366 5.71582,9.95248 3.99262,8.89489 5.47196,11.64455 7.20884,13.39922 1.74044,1.75829 6.66483,3.07385 11.5059,3.07385 3.21218,0 7.32522,1.36131 8.15124,2.69784 1.33608,2.16183 1.62181,4.87789 0.61865,5.88103 -1.51013,1.51012 -2.15888,1.26122 -1.78674,-0.68552 0.40798,-2.13418 -0.54873,-2.22203 -1.86882,-0.1716 l -0.99425,1.54435 -0.37527,-2.05913 c -0.29813,-1.63581 -0.77259,-2.10475 -2.30797,-2.28099 -1.06299,-0.12203 -2.83561,0.0929 -3.93916,0.4776 -1.70587,0.59466 -2.11355,0.49936 -2.72124,-0.63612 -0.52087,-0.9732 -1.44216,-1.33557 -3.39566,-1.33557 -1.47447,0 -2.88971,0.33795 -3.14501,0.75101 -0.25527,0.41306 -1.23833,0.60302 -2.18454,0.42214 -1.25921,-0.24071 -1.80807,0.006 -2.04746,0.9218 -0.27314,1.04452 -0.62684,1.13884 -2.14581,0.57217 -1.00032,-0.37317 -2.35702,-1.35758 -3.01488,-2.18758 -0.9011,-1.1369 -1.33605,-1.29469 -1.7635,-0.63974 -0.426,0.65273 -1.58175,0.20852 -4.6381,-1.78264 -6.85925,-4.46867 -6.7427,-4.19579 -6.27854,-14.69893 0.45063,-10.19699 -0.14257,-10.28753 -1.92095,-0.29321 -1.49097,8.37913 -1.10393,12.98806 1.43004,17.02897 2.95728,4.71601 4.49849,5.75026 12.07106,8.10054 3.90541,1.2121 7.78719,2.47909 8.62615,2.81552 1.76552,0.70797 2.60183,3.28008 1.933,5.94492 -0.46186,1.84018 -0.47556,1.83216 -1.75679,-1.02957 -0.73012,-1.63074 -1.76384,-2.88421 -2.37858,-2.88421 -0.86227,0 -0.94024,0.27474 -0.37675,1.32763 0.84017,1.56988 0.93987,4.62701 0.16648,5.10498 -0.29923,0.18494 -0.83976,-0.32977 -1.20117,-1.1438 z"
       id="path4175"
       inkscape:connector-curvature="0" />
    <g
       id="g4183"
       transform="matrix(1.342097,0,0,1.342097,43.569788,-213.89388)"
       style="fill:#000000;fill-opacity:1">
      <path
         inkscape:connector-curvature="0"
         id="path4177"
         d="m 107.45434,917.96322 c -3.21916,-1.66784 -5.29959,-4.49417 -6.17934,-8.39487 l -0.5166,-2.29052 4.31063,0.34601 c 5.05481,0.40575 7.86063,-0.14636 7.86063,-1.54676 0,-0.80831 0.31811,-0.85684 1.64718,-0.25127 2.14209,0.976 10.70762,-1.67844 10.70762,-3.31826 0,-0.73406 0.43931,-0.93878 1.44829,-0.67493 1.86077,0.4866 8.7147,-2.83757 9.23579,-4.47938 0.24592,-0.77481 1.07213,-1.23511 2.23176,-1.24331 2.27335,-0.0161 8.36188,-3.74015 8.36188,-5.11452 0,-0.60689 0.40351,-0.85192 1.01592,-0.61692 0.55874,0.21442 2.62705,-0.41302 4.59622,-1.39429 5.7103,-2.84556 9.47757,-2.2158 11.20668,1.87337 l 0.92041,2.17669 0.78018,-2.03877 c 0.76704,-2.0044 0.71361,-2.7771 -0.38104,-5.51139 -0.48587,-1.21364 -0.41745,-1.26531 0.59035,-0.4458 0.62696,0.50981 1.33689,1.97694 1.57765,3.26029 0.52083,2.77624 1.43867,2.99887 2.36109,0.57272 1.09875,-2.88994 0.77787,-4.44545 -1.29171,-6.26148 l -1.96112,-1.72084 1.64912,-1.64912 c 0.90702,-0.90701 2.04904,-1.64911 2.53783,-1.64911 0.48878,0 2.55963,-0.92101 4.60185,-2.0467 2.29107,-1.26284 4.72876,-2.05147 6.36497,-2.05913 2.55813,-0.0121 2.64113,0.0604 2.3496,2.0467 -0.34728,2.36616 -0.0795,2.48417 2.12819,0.93785 1.55168,-1.08683 1.58565,-1.07344 1.10636,0.43666 -0.44743,1.40976 -0.32404,1.51515 1.2974,1.1082 0.98553,-0.24736 1.79186,-0.32217 1.79186,-0.16626 0,0.36157 -17.42939,14.34609 -26.42555,21.20262 -10.18157,7.76 -20.37699,13.88156 -28.48469,17.10285 -6.85194,2.72236 -7.62963,2.87668 -15.78669,3.13258 -7.92322,0.24858 -8.81486,0.14735 -11.65272,-1.32291 z"
         style="opacity:1;fill:#000000;fill-opacity:1;fill-rule:evenodd;stroke:none;stroke-width:3;stroke-linecap:round;stroke-linejoin:miter;stroke-miterlimit:4;stroke-dasharray:none;stroke-dashoffset:0;stroke-opacity:1" />
      <path
         inkscape:connector-curvature="0"
         id="path4179"
         d="m 163.34917,889.74335 c -1.13481,-2.55602 -3.92726,-3.64806 -7.13742,-2.79121 -2.66217,0.71057 -2.78579,0.67384 -2.78579,-0.82799 0,-1.79986 -1.31965,-3.3111 -4.18547,-4.79305 -1.9739,-1.02075 -2.00925,-1.00511 -3.15451,1.39657 l -1.15826,2.42888 -2.14501,-2.07903 c -2.33034,-2.25864 -3.06871,-2.1084 -3.11289,0.63344 -0.0282,1.75097 -0.057,1.74095 -2.30345,-0.80077 -2.47095,-2.79572 -3.15899,-3.13209 -3.15899,-1.54434 0,1.80438 -1.24753,1.12736 -5.05903,-2.74552 -2.04337,-2.07629 -3.90311,-3.77508 -4.13275,-3.77508 -0.22963,0 -0.42863,0.54051 -0.44219,1.20116 -0.0583,2.83931 -7.52548,-8.07741 -7.52548,-11.00202 0,-1.09008 -0.23165,-1.86336 -0.51478,-1.71841 -5.356,2.74216 -12.5901,6.02825 -13.27074,6.02825 -0.49477,0 -0.0717,-0.84915 0.95911,-1.92511 1.0144,-1.0588 1.84436,-2.13984 1.84436,-2.40232 0,-0.26247 -1.26122,-0.47722 -2.80271,-0.47722 -1.54149,0 -2.69721,-0.23166 -2.56827,-0.51479 0.12894,-0.28313 1.38613,-2.73836 2.79374,-5.45607 1.42641,-2.75399 2.26916,-5.12057 1.90387,-5.34635 -0.36048,-0.22278 -4.01797,0.088 -8.127744,0.69076 -4.109771,0.6027 -9.1388,0.98746 -11.17562,0.85502 l -3.703304,-0.24078 2.917106,-1.27542 c 1.604408,-0.70147 2.917107,-1.49043 2.917107,-1.75323 0,-0.2628 -3.033764,-0.33174 -6.741693,-0.15318 -5.31407,0.25589 -7.167258,0.0942 -8.751322,-0.76334 -1.105293,-0.59838 -1.643644,-1.10034 -1.196335,-1.11546 0.44731,-0.0151 1.68279,-0.35942 2.745513,-0.76512 1.863632,-0.71148 1.884924,-0.77239 0.599872,-1.71596 -1.91029,-1.40265 -6.742857,-1.21523 -19.25899,0.7469 -11.324149,1.77527 -24.366418,2.93265 -24.366418,2.16227 0,-0.24043 1.158264,-0.9683 2.573917,-1.61749 l 2.573917,-1.18032 -2.745511,-0.2475 c -3.841442,-0.3463 -4.387339,-1.25517 -1.072287,-1.78527 3.288625,-0.52587 3.623397,-1.46376 0.729098,-2.04262 -3.676126,-0.73523 -2.244855,-1.81891 2.402323,-1.81891 2.516719,0 4.461456,-0.29918 4.461456,-0.68637 0,-0.37751 -0.525078,-0.68638 -1.166842,-0.68638 -2.839392,0 0.497182,-1.3568 4.264785,-1.73425 7.470643,-0.74844 8.003291,-1.03058 4.109026,-2.17649 -1.887539,-0.55541 -3.740759,-1.32735 -4.118267,-1.7154 -0.466082,-0.47911 -0.245787,-0.58406 0.686377,-0.32701 4.085829,1.12672 13.479766,2.01788 21.964096,2.08366 l 9.609291,0.0744 8.613165,-3.15028 c 10.969391,-4.01207 21.930654,-8.81155 21.930654,-9.60252 0,-0.33641 -1.26614,-0.61165 -2.81365,-0.61165 -2.02745,0 -3.923512,0.68505 -6.785619,2.45164 -2.929811,1.80838 -4.577777,2.39368 -6.28086,2.23073 -2.118897,-0.20273 -2.308028,-0.40972 -2.298445,-2.5153 0.01031,-2.26445 -0.02101,-2.28773 -2.402323,-1.78406 -1.327023,0.28068 -3.957114,0.54098 -5.844654,0.57845 -3.415471,0.0678 -3.433529,0.0566 -3.775078,-2.33422 l -0.34319,-2.40231 -6.556458,-0.34319 c -8.623278,-0.45138 -11.094868,-2.03853 -12.291945,-7.89335 -0.306518,-1.49915 -0.870467,-2.12356 -2.073737,-2.296 -2.898785,-0.41545 -13.455803,-12.11194 -19.446632,-21.5456 -5.752116,-9.05775 -10.161235,-20.32963 -10.350915,-26.46202 -0.109426,-3.53778 -0.220648,-3.72645 -4.382142,-7.43339 -2.348426,-2.09191 -4.269865,-4.24873 -4.269865,-4.79293 0,-0.5442 0.755255,-1.33357 1.678346,-1.75417 l 1.678348,-0.7647 -2.707916,-3.21142 c -1.489352,-1.76628 -2.707913,-3.38573 -2.707913,-3.59877 0,-0.21303 0.92661,-0.77116 2.059135,-1.24026 1.132523,-0.46911 2.059134,-1.00603 2.059134,-1.19316 0,-0.18714 -1.235481,-1.53923 -2.745513,-3.00467 -1.510032,-1.46543 -2.745511,-3.11721 -2.745511,-3.67061 0,-1.63601 2.575118,-2.54537 8.323873,-2.93939 2.972027,-0.2037 5.403686,-0.56641 5.403686,-0.80602 0,-0.23961 -2.777729,-1.465 -6.172731,-2.7231 -4.515232,-1.67322 -6.726901,-2.91861 -8.236535,-4.63799 -1.135093,-1.29279 -2.0638046,-2.64866 -2.0638046,-3.01304 0,-0.81453 3.6130616,-0.81523 9.9281066,-0.002 7.510394,0.96725 7.642016,0.0109 0.515813,-3.74597 -5.799674,-3.05792 -14.7986446,-10.64216 -12.6273002,-10.64216 1.3479829,0 16.6826842,4.59973 22.9032942,6.86997 3.093859,1.12912 5.92879,2.05294 6.299847,2.05294 1.73306,0 -3.241602,-3.79124 -11.398648,-8.68703 -6.611165,-3.96798 -9.664003,-6.25727 -11.60917,-8.70564 -4.4865807,-5.64724 -3.779478,-5.79998 6.237541,-1.34735 8.457483,3.75942 15.143151,7.20288 23.782223,12.24911 2.044613,1.19429 4.405459,1.03836 4.405459,-0.29097 0,-0.35615 -3.412811,-3.63569 -7.584024,-7.28786 -11.070354,-9.69282 -18.949961,-19.89987 -18.373531,-23.80061 0.234363,-1.58597 3.223791,0.78437 25.471009,20.19612 5.565529,4.85619 9.822274,8.06494 10.698978,8.06494 0.800796,0 1.455993,-0.17836 1.455993,-0.39636 0,-0.21799 -2.801887,-3.53836 -6.226414,-7.37856 -7.348656,-8.24066 -11.731981,-14.59948 -14.127138,-20.49399 -1.87761,-4.62083 -2.955145,-11.54101 -1.79704,-11.54101 0.380563,0 2.714851,3.07964 5.187305,6.84364 5.275774,8.03168 22.094013,29.24926 23.661347,29.85071 2.451491,0.94072 1.950936,-0.9623 -1.618013,-6.15141 -8.462195,-12.30369 -11.943826,-20.39942 -11.943826,-27.77259 0,-2.61167 0.231653,-4.8915 0.514785,-5.06629 0.28313,-0.17481 4.221224,6.50161 8.751317,14.83647 9.759959,17.95722 16.598193,29.28792 18.000401,29.82601 2.141184,0.82165 1.965106,-1.47981 -0.561588,-7.34054 -2.862251,-6.63905 -4.741211,-15.64859 -4.728114,-22.67119 0.0114,-6.12557 0.949995,-7.33576 2.052853,-2.64692 1.41107,5.9992 12.810855,38.84383 14.34171,41.3208 1.427399,2.30957 5.203459,5.99499 13.021869,12.70927 5.6926,4.88868 7.03522,7.11418 10.40956,17.25464 6.12568,18.40875 18.06846,38.43717 22.91976,38.43717 0.98291,0 0.14057,-1.90397 -2.79762,-6.32366 -3.71634,-5.59017 -7.35813,-12.77975 -9.2314,-18.22452 l -1.32398,-3.84819 1.81885,-2.78967 c 2.41771,-3.70818 13.89037,-15.02156 19.47262,-19.20226 5.62741,-4.21453 12.1119,-7.35457 14.13787,-6.84609 1.11657,0.28025 1.63504,0.017 1.95559,-0.99297 0.8229,-2.59274 3.05136,-4.81019 4.46307,-4.44102 0.75028,0.1962 2.22567,-0.28108 3.35526,-1.08543 1.79234,-1.27625 2.11298,-1.31897 2.88825,-0.38482 0.76516,0.92196 1.14606,0.78526 3.1066,-1.11497 1.22898,-1.19117 2.53444,-1.98041 2.901,-1.75385 0.36657,0.22655 0.87638,1.81159 1.13293,3.52234 0.53702,3.58116 1.3845,3.54966 1.97241,-0.0734 0.39314,-2.42256 2.1281,-5.07938 3.31695,-5.07938 0.31899,0 0.58421,1.62157 0.58935,3.60349 0.0164,6.28858 1.46446,8.99787 2.33344,4.36573 0.49128,-2.61871 4.36185,-10.71473 5.12252,-10.71473 0.58601,0 -0.31277,10.57234 -1.3068,15.37207 -0.71956,3.47444 -0.38504,4.90259 0.73555,3.14026 0.35311,-0.55533 1.6956,-3.69275 2.9833,-6.97202 2.36277,-6.0171 5.59006,-11.13227 6.62146,-10.49483 0.62872,0.38857 -2.76199,13.61188 -4.84625,18.89967 -1.52744,3.87516 -1.757,6.38497 -0.54715,5.98169 0.44538,-0.14846 2.3882,-2.81447 4.31738,-5.92446 4.25739,-6.86328 8.67327,-12.09971 11.38723,-13.50314 1.10981,-0.57391 2.01783,-0.89765 2.01783,-0.71942 0,0.43097 -3.88532,7.1054 -10.06072,17.28286 -2.77177,4.56806 -5.03959,8.66059 -5.03959,9.09451 0,1.68715 1.35352,0.5885 5.57029,-4.52146 5.38687,-6.52788 7.99148,-8.90015 12.44438,-11.33425 5.94578,-3.25018 5.79981,-2.11951 -0.57598,4.46145 -9.46131,9.76578 -14.00679,15.13576 -14.00679,16.54743 0,1.28978 1.00282,0.55055 7.55016,-5.56561 3.24475,-3.03107 8.70199,-6.27337 11.92484,-7.0849 1.77544,-0.44705 3.38375,-0.65713 3.57405,-0.46683 0.1903,0.1903 -3.29632,3.23082 -7.74805,6.75671 -4.45172,3.52589 -10.34597,8.40091 -13.09832,10.83337 -6.08323,5.37623 -5.76413,6.92987 0.6486,3.15783 5.06053,-2.97666 10.15333,-4.86015 14.79673,-5.4723 l 3.28651,-0.43327 -4.66565,2.42124 c -11.90647,6.17884 -22.25255,12.13015 -23.6061,13.57879 -0.81751,0.87493 -2.13292,3.32478 -2.92317,5.44411 -1.71528,4.60013 -2.59127,5.46897 -7.94724,7.88225 -5.26409,2.3719 -12.00195,7.12561 -14.64559,10.33281 l -2.07008,2.51136 3.21931,2.42516 c 6.00765,4.52565 11.80821,9.88807 14.13578,13.06803 2.99466,4.09135 4.29201,8.24998 3.20646,10.27836 -0.5998,1.1207 -0.58988,2.45066 0.041,5.50515 0.94189,4.56023 0.23923,7.35343 -2.23925,8.90127 -0.78074,0.48758 -1.46665,0.78789 -1.52428,0.66735 -3.27764,-6.85691 -4.47323,-8.47467 -7.89144,-10.67789 -10.77491,-6.94505 -15.70145,-6.63581 -19.69039,1.23595 -0.93081,1.83688 -2.92201,5.24225 -4.42488,7.56749 l -2.7325,4.2277 1.52223,2.14569 c 0.83722,1.18013 2.91587,3.99891 4.61923,6.26396 1.70336,2.26505 4.27548,6.74366 5.71582,9.95248 3.99262,8.89489 5.47196,11.64455 7.20884,13.39922 1.74044,1.75829 6.66483,3.07385 11.5059,3.07385 3.21218,0 7.32522,1.36131 8.15124,2.69784 1.33608,2.16183 1.62181,4.87789 0.61865,5.88103 -1.51013,1.51012 -2.15888,1.26122 -1.78674,-0.68552 0.35268,-1.84493 -0.79953,-2.38922 -1.45299,-0.68638 -0.58911,1.53523 -1.68503,1.24363 -1.93477,-0.51478 -0.25839,-1.81937 -2.94598,-2.38733 -6.09771,-1.28861 -1.70587,0.59466 -2.11355,0.49936 -2.72124,-0.63612 -0.52087,-0.9732 -1.44216,-1.33557 -3.39566,-1.33557 -1.47447,0 -2.88971,0.33795 -3.14501,0.75101 -0.25527,0.41306 -1.23833,0.60302 -2.18454,0.42214 -1.25921,-0.24071 -1.80807,0.006 -2.04746,0.9218 -0.27314,1.04452 -0.62684,1.13884 -2.14581,0.57217 -1.00032,-0.37317 -2.35702,-1.35758 -3.01488,-2.18758 -0.9011,-1.1369 -1.33605,-1.29469 -1.7635,-0.63974 -0.426,0.65273 -1.58175,0.20852 -4.6381,-1.78264 -6.85925,-4.46867 -6.7427,-4.19579 -6.27854,-14.69893 0.45063,-10.19699 -0.14257,-10.28753 -1.92095,-0.29321 -1.49097,8.37913 -1.10393,12.98806 1.43004,17.02897 2.95728,4.71601 4.49849,5.75026 12.07106,8.10054 3.90541,1.2121 7.78719,2.47909 8.62615,2.81552 1.76552,0.70797 2.60183,3.28008 1.933,5.94492 -0.46186,1.84018 -0.47556,1.83216 -1.75679,-1.02957 -0.73012,-1.63074 -1.76384,-2.88421 -2.37858,-2.88421 -0.86227,0 -0.94024,0.27474 -0.37675,1.32763 0.84017,1.56988 0.93987,4.62701 0.16648,5.10498 -0.29923,0.18494 -0.83976,-0.32977 -1.20117,-1.1438 z"
         style="opacity:1;fill:#000000;fill-opacity:1;fill-rule:evenodd;stroke:none;stroke-width:3;stroke-linecap:round;stroke-linejoin:miter;stroke-miterlimit:4;stroke-dasharray:none;stroke-dashoffset:0;stroke-opacity:1" />
    </g>
  </g>
</svg>
