<?xml version="1.0" encoding="UTF-8" standalone="no"?>
<svg
   xmlns:dc="http://purl.org/dc/elements/1.1/"
   xmlns:cc="http://creativecommons.org/ns#"
   xmlns:rdf="http://www.w3.org/1999/02/22-rdf-syntax-ns#"
   xmlns:svg="http://www.w3.org/2000/svg"
   xmlns="http://www.w3.org/2000/svg"
   xmlns:xlink="http://www.w3.org/1999/xlink"
   xmlns:sodipodi="http://sodipodi.sourceforge.net/DTD/sodipodi-0.dtd"
   xmlns:inkscape="http://www.inkscape.org/namespaces/inkscape"
   height="30"
   width="27"
   version="1.0"
   id="svg2"
   sodipodi:version="0.32"
   inkscape:version="0.92.2 (5c3e80d, 2017-08-06)"
   sodipodi:docname="logo_dB.svg"
   inkscape:export-filename="E:\DEV\Projets\page-perso-vue-js\app\images\logo_dB.png"
   inkscape:export-xdpi="383.11838"
   inkscape:export-ydpi="383.11838"
   inkscape:output_extension="org.inkscape.output.svg.inkscape">
  <metadata
     id="metadata49">
    <rdf:RDF>
      <cc:Work
         rdf:about="">
        <dc:format>image/svg+xml</dc:format>
        <dc:type
           rdf:resource="http://purl.org/dc/dcmitype/StillImage" />
        <dc:title>Gabarit d'un blason en pointe pour le projet Blasons de Wikipédia</dc:title>
        <dc:date>03-AUG-2006</dc:date>
        <dc:creator>
          <cc:Agent>
            <dc:title>Jérôme BLUM (wagner51)</dc:title>
          </cc:Agent>
        </dc:creator>
        <cc:license
           rdf:resource="http://web.resource.org/cc/PublicDomain" />
        <dc:language>fr</dc:language>
        <dc:subject>
          <rdf:Bag>
            <rdf:li>gabarit modèle blason projet wikipédia</rdf:li>
          </rdf:Bag>
        </dc:subject>
      </cc:Work>
      <cc:License
         rdf:about="http://web.resource.org/cc/PublicDomain">
        <cc:permits
           rdf:resource="http://web.resource.org/cc/Reproduction" />
        <cc:permits
           rdf:resource="http://web.resource.org/cc/Distribution" />
        <cc:permits
           rdf:resource="http://web.resource.org/cc/DerivativeWorks" />
      </cc:License>
    </rdf:RDF>
  </metadata>
  <sodipodi:namedview
     inkscape:window-height="1001"
     inkscape:window-width="1920"
     inkscape:pageshadow="2"
     inkscape:pageopacity="0.0"
     guidetolerance="10.0"
     gridtolerance="10.0"
     objecttolerance="10.0"
     borderopacity="1.0"
     bordercolor="#666666"
     pagecolor="#ffffff"
     id="base"
     showgrid="false"
     height="660px"
     inkscape:zoom="22.627417"
     inkscape:cx="13.58347"
     inkscape:cy="20.26077"
     inkscape:window-x="-9"
     inkscape:window-y="-9"
     inkscape:current-layer="flowRoot900"
     inkscape:window-maximized="1" />
  <desc
     id="desc4">Flag of Canton of Valais (Wallis)</desc>
  <defs
     id="defs6">
    <inkscape:perspective
       sodipodi:type="inkscape:persp3d"
       inkscape:vp_x="0 : 330 : 1"
       inkscape:vp_y="0 : 1000 : 0"
       inkscape:vp_z="600 : 330 : 1"
       inkscape:persp3d-origin="300 : 220 : 1"
       id="perspective4807" />
    <linearGradient
       id="linearGradient2893">
      <stop
         style="stop-color: white; stop-opacity: 0.313726;"
         offset="0"
         id="stop2895" />
      <stop
         id="stop2897"
         offset="0.19"
         style="stop-color: white; stop-opacity: 0.25098;" />
      <stop
         style="stop-color: rgb(107, 107, 107); stop-opacity: 0.12549;"
         offset="0.60000002"
         id="stop2901" />
      <stop
         style="stop-color: black; stop-opacity: 0.12549;"
         offset="1"
         id="stop2899" />
    </linearGradient>
    <linearGradient
       id="linearGradient2885">
      <stop
         id="stop2887"
         offset="0"
         style="stop-color: white; stop-opacity: 1;" />
      <stop
         style="stop-color: white; stop-opacity: 1;"
         offset="0.22857143"
         id="stop2891" />
      <stop
         id="stop2889"
         offset="1"
         style="stop-color: black; stop-opacity: 1;" />
    </linearGradient>
    <linearGradient
       id="linearGradient2955">
      <stop
         id="stop2867"
         offset="0"
         style="stop-color: rgb(253, 0, 0); stop-opacity: 1;" />
      <stop
         style="stop-color: rgb(231, 114, 117); stop-opacity: 0.658824;"
         offset="0.5"
         id="stop2873" />
      <stop
         style="stop-color: black; stop-opacity: 0.322917;"
         offset="1"
         id="stop2959" />
    </linearGradient>
    <radialGradient
       inkscape:collect="always"
       xlink:href="#linearGradient2955"
       id="radialGradient2961"
       cx="225.52438"
       cy="218.90099"
       fx="225.52438"
       fy="218.90099"
       r="300"
       gradientTransform="matrix(-4.16794e-4,2.18287,-1.88423,-3.59956e-4,615.597,-289.121)"
       gradientUnits="userSpaceOnUse" />
    <polygon
       id="star"
       transform="scale(53,53)"
       points="0,-1 0.587785,0.809017 -0.951057,-0.309017 0.951057,-0.309017 -0.587785,0.809017 0,-1 " />
    <clipPath
       id="clip">
      <path
         d="m 0,-200 0,800 300,0 0,-800 -300,0 z"
         id="path10"
         inkscape:connector-curvature="0" />
    </clipPath>
    <radialGradient
       inkscape:collect="always"
       xlink:href="#linearGradient2955"
       id="radialGradient1911"
       gradientUnits="userSpaceOnUse"
       gradientTransform="matrix(-4.16794e-4,2.18287,-1.88423,-3.59956e-4,615.597,-289.121)"
       cx="225.52438"
       cy="218.90099"
       fx="225.52438"
       fy="218.90099"
       r="300" />
    <radialGradient
       inkscape:collect="always"
       xlink:href="#linearGradient2955"
       id="radialGradient2865"
       gradientUnits="userSpaceOnUse"
       gradientTransform="matrix(0,1.74872,-1.59316,-1.04977e-7,551.788,-191.29)"
       cx="225.52438"
       cy="218.90099"
       fx="225.52438"
       fy="218.90099"
       r="300" />
    <radialGradient
       inkscape:collect="always"
       xlink:href="#linearGradient2955"
       id="radialGradient2871"
       gradientUnits="userSpaceOnUse"
       gradientTransform="matrix(0,1.38624,-1.32329,-5.74113e-8,-158.082,-109.541)"
       cx="225.52438"
       cy="218.90099"
       fx="225.52438"
       fy="218.90099"
       r="300" />
    <radialGradient
       inkscape:collect="always"
       xlink:href="#linearGradient2893"
       id="radialGradient3163"
       gradientUnits="userSpaceOnUse"
       gradientTransform="matrix(0.05804536,0,0,0.05786134,-20.001595,638.66213)"
       cx="221.44487"
       cy="226.33101"
       fx="221.44487"
       fy="226.33101"
       r="300" />
    <inkscape:perspective
       inkscape:persp3d-origin="300 : 220 : 1"
       sodipodi:type="inkscape:persp3d"
       inkscape:vp_x="0 : 330 : 1"
       inkscape:vp_y="0 : 1000 : 0"
       inkscape:vp_z="600 : 330 : 1"
       id="perspective2993" />
    <inkscape:perspective
       inkscape:persp3d-origin="300 : 220 : 1"
       sodipodi:type="inkscape:persp3d"
       inkscape:vp_x="0 : 330 : 1"
       inkscape:vp_y="0 : 1000 : 0"
       inkscape:vp_z="600 : 330 : 1"
       id="perspective4536" />
    <inkscape:perspective
       inkscape:persp3d-origin="300 : 220 : 1"
       sodipodi:type="inkscape:persp3d"
       inkscape:vp_x="0 : 330 : 1"
       inkscape:vp_y="0 : 1000 : 0"
       inkscape:vp_z="600 : 330 : 1"
       id="perspective4945" />
    <inkscape:perspective
       inkscape:persp3d-origin="300 : 220 : 1"
       sodipodi:type="inkscape:persp3d"
       inkscape:vp_x="0 : 330 : 1"
       inkscape:vp_y="0 : 1000 : 0"
       inkscape:vp_z="600 : 330 : 1"
       id="perspective5352" />
    <inkscape:perspective
       inkscape:persp3d-origin="136.1109 : 125.26226 : 1"
       sodipodi:type="inkscape:persp3d"
       inkscape:vp_x="0 : 187.89339 : 1"
       inkscape:vp_y="0 : 1000 : 0"
       inkscape:vp_z="272.2218 : 187.89339 : 1"
       id="perspective5688" />
    <radialGradient
       gradientUnits="userSpaceOnUse"
       gradientTransform="matrix(1.3532,0,0,-1.3489,372.2655,1484.1567)"
       r="300"
       cy="591.03473"
       cx="77.883499"
       id="path2875_1_">
      <stop
         id="stop4190"
         style="stop-color:#FFFFFF;stop-opacity:0.3137"
         offset="0" />
      <stop
         id="stop4192"
         style="stop-color:#FFFFFF;stop-opacity:0.251"
         offset="0.19" />
      <stop
         id="stop4194"
         style="stop-color:#6B6B6B;stop-opacity:0.1255"
         offset="0.6" />
      <stop
         id="stop4196"
         style="stop-color:#000000;stop-opacity:0.1255"
         offset="1" />
    </radialGradient>
  </defs>
  <g
     inkscape:groupmode="layer"
     id="layer3"
     inkscape:label="Fond écu"
     style="display:inline"
     transform="translate(0,-630)" />
  <g
     inkscape:groupmode="layer"
     id="layer4"
     inkscape:label="Meubles"
     transform="translate(0,-630)" />
  <g
     inkscape:groupmode="layer"
     id="layer2"
     inkscape:label="Reflet final"
     transform="translate(0,-630)" />
  <g
     inkscape:groupmode="layer"
     id="layer1"
     inkscape:label="Contour final"
     transform="translate(0,-630)"
     style="opacity:0.98999999">
    <path
       d="m 13.562499,657.35303 c 0,0 11.218039,-4.29865 11.218039,-15.22735 0,-10.92872 0,-9.89721 0,-9.89721 H 2.344463 v 9.89721 c 0,10.92487 11.218036,15.22735 11.218036,15.22735 z"
       sodipodi:nodetypes="cccccc"
       inkscape:export-xdpi="144"
       inkscape:export-ydpi="144"
       id="path2855"
       inkscape:connector-curvature="0"
       style="fill:#fffffc;stroke:#2b5df2;stroke-width:2.6893084;stroke-linejoin:round;stroke-miterlimit:4;stroke-dasharray:none;stroke-opacity:1;fill-opacity:1" />
    <g
       transform="matrix(0.51262471,0,0,0.48923593,13.862896,633.9573)"
       style="font-style:normal;font-weight:normal;font-size:40px;line-height:125%;font-family:sans-serif;letter-spacing:0px;word-spacing:0px;fill:#2b5df2;fill-opacity:0.99215686;stroke:none;stroke-width:1px;stroke-linecap:butt;stroke-linejoin:miter;stroke-opacity:1"
       id="flowRoot4258" />
    <g
       aria-label="dB"
       transform="matrix(5.9836775,0,0,5.9836775,-202.53992,667.05243)"
       style="font-style:normal;font-weight:normal;font-size:2.66666675px;line-height:1.25;font-family:sans-serif;letter-spacing:0px;word-spacing:0px;fill:#2b5df2;fill-opacity:0.99215686;stroke:none"
       id="flowRoot900">
      <path
         d="m 34.944661,-3.388836 c 0.05729,0.020833 0.17448,0.00521 0.255209,-0.03125 0.04948,-0.023437 0.104166,-0.0625 0.169271,-0.1145834 0.05469,-0.044271 0.104166,-0.078125 0.10677,-0.078125 0.0026,-0.0026 0.0078,0.026042 0.0078,0.059896 0,0.075521 0.02865,0.1458333 0.06771,0.1666666 0.02083,0.010417 0.05729,0.013021 0.109375,0.00781 0.0651,-0.00521 0.171875,-0.054687 0.320313,-0.1510416 0.09375,-0.059896 0.109375,-0.091146 0.07292,-0.1432292 -0.01823,-0.028646 -0.02083,-0.026042 -0.08854,0.0026 -0.0651,0.03125 -0.07292,0.028646 -0.09635,0.00781 -0.01563,-0.013021 -0.02604,-0.2890625 -0.02865,-0.8281251 0,-0.2526041 -0.0026,-0.3932291 -0.0052,-0.5260416 0,-0.065104 0,-0.1145834 -0.0026,-0.1484375 0,-0.109375 -0.0078,-0.1432292 -0.01563,-0.1510417 -0.01042,-0.010417 -0.02604,-0.013021 -0.04948,-0.010417 -0.02083,0.0026 -0.07292,0.013021 -0.158854,0.036458 l -0.242188,0.054687 c -0.05208,0.00781 -0.05729,0.010417 -0.05729,0.052083 0,0.013021 0,0.023437 0.0026,0.028646 0.0026,0.010417 0.02083,0.018229 0.04948,0.023437 0.03385,0.00521 0.0651,0.020833 0.08854,0.049479 l 0.03385,0.041667 v 0.6171875 0.6197917 l -0.09115,0.067708 c -0.0599,0.044271 -0.106771,0.075521 -0.140625,0.088542 -0.04948,0.020833 -0.04948,0.020833 -0.08854,-0.018229 -0.02344,-0.023437 -0.03906,-0.057292 -0.04687,-0.096354 -0.0078,-0.052083 -0.0078,-0.203125 -0.0026,-0.453125 0.0052,-0.25 0.01302,-0.390625 0.02083,-0.4192708 0.02083,-0.057292 0.08333,-0.1276042 0.114583,-0.1276042 0.01302,0 0.03906,0.018229 0.08073,0.054687 0.04167,0.033854 0.0651,0.052083 0.07292,0.052083 0.0078,0 0.02083,-0.010417 0.03906,-0.033854 0.01823,-0.023437 0.02865,-0.041667 0.02865,-0.049479 0,-0.013021 -0.03385,-0.049479 -0.09896,-0.109375 -0.0651,-0.059896 -0.114584,-0.098958 -0.143229,-0.1119792 -0.161459,-0.078125 -0.309896,-0.00521 -0.414063,0.2005209 l -0.04427,0.083333 v 0.5286459 c 0,0.2578125 0,0.4114583 0.0026,0.4661458 0.0026,0.054687 0.01302,0.098958 0.02604,0.1328125 0.03385,0.083333 0.08333,0.1354167 0.145833,0.1588542 z"
         style="font-style:normal;font-variant:normal;font-weight:normal;font-stretch:normal;font-family:'JMH Beda';-inkscape-font-specification:'JMH Beda';fill:#2b5df2;fill-opacity:0.99215686"
         id="path858" />
      <path
         d="m 37.054037,-3.7820652 c -0.02344,0.049479 -0.04167,0.075521 -0.04948,0.078125 -0.0078,0.0026 -0.04687,-0.010417 -0.111979,-0.036458 -0.0651,-0.026042 -0.140625,-0.052083 -0.223958,-0.080729 -0.09635,-0.036458 -0.127604,-0.044271 -0.119792,-0.057292 0.0078,-0.018229 0.02865,-0.065104 0.0599,-0.1171875 l 0.05729,-0.1119791 0.01302,-0.2734376 c 0.0078,-0.1822916 0.01042,-0.3177083 0.0052,-0.4036458 l -0.0078,-0.1276042 0.125,-0.075521 c 0.0625,-0.039063 0.101563,-0.059896 0.114584,-0.0625 0.01563,-0.00521 0.03385,-0.0026 0.05208,0.00781 0.04948,0.026042 0.08854,0.072917 0.111979,0.1380208 0.02344,0.070312 -0.04948,0.1588542 -0.223958,0.2604167 -0.114583,0.070312 -0.151042,0.096354 -0.122396,0.1432292 0.01302,0.049479 0.02083,0.049479 0.09375,0.010417 0.117188,-0.049479 0.226563,0.00521 0.270833,0.1510417 0.02083,0.070312 0.02604,0.1666667 0.01563,0.2864584 -0.0078,0.1197916 -0.02864,0.2109375 -0.05989,0.2708333 z m -0.177084,0.4010417 c 0.01302,0.00781 0.02604,0.013021 0.03385,0.013021 0.0078,0.0026 0.04427,-0.03125 0.109375,-0.096354 0.06511,-0.065104 0.132813,-0.1380208 0.203125,-0.2135416 0.07031,-0.075521 0.117188,-0.1276042 0.135417,-0.15625 0.09896,-0.1458334 0.125,-0.2265625 0.125,-0.4140626 0,-0.1223958 -0.01563,-0.2135416 -0.04427,-0.2786458 -0.02865,-0.065104 -0.08333,-0.125 -0.161458,-0.1744792 l -0.07031,-0.044271 0.08073,-0.070312 c 0.148437,-0.1328125 0.164062,-0.2604167 0.04427,-0.3828125 -0.0625,-0.067708 -0.166666,-0.1432292 -0.192708,-0.1432292 -0.01042,0 -0.114583,0.057292 -0.226562,0.1276042 -0.11198,0.067708 -0.216146,0.1328125 -0.229167,0.1328125 -0.01302,0.00781 -0.02604,-0.0026 -0.03385,-0.028646 -0.02865,-0.075521 -0.07031,-0.1354167 -0.125,-0.1796875 -0.04427,-0.033854 -0.07031,-0.052083 -0.08333,-0.052083 -0.0078,0 -0.08333,0.041667 -0.164062,0.096354 l -0.148438,0.09375 0.07292,0.078125 c 0.04948,0.054687 0.07552,0.085937 0.07552,0.096354 0,0.00781 0.0052,0.075521 0.01302,0.1484375 0.0078,0.088542 0.01302,0.2526041 0.01302,0.4947916 0.0026,0.2109376 -0.0026,0.3515626 -0.01563,0.4244792 -0.01042,0.070312 -0.03646,0.1432292 -0.08073,0.2161459 -0.02864,0.049479 -0.04687,0.091146 -0.04427,0.098958 0.0026,0.00781 0.03385,0.013021 0.08854,0.020833 0.03906,0.0026 0.148438,0.033854 0.325521,0.088542 0.177083,0.054687 0.276042,0.091146 0.299479,0.1041667 z"
         style="font-style:normal;font-variant:normal;font-weight:normal;font-stretch:normal;font-family:'JMH Beda';-inkscape-font-specification:'JMH Beda';fill:#2b5df2;fill-opacity:0.99215686"
         id="path860" />
    </g>
  </g>
</svg>
